<svg width="207" height="202" viewBox="0 0 207 202" fill="none" xmlns="http://www.w3.org/2000/svg">
<path d="M57.9819 43.8585C60.0618 43.584 61.1876 43.4887 62.2823 43.2823C68.0916 42.1916 73.8462 40.9187 79.8431 40.9859C85.3556 41.0485 90.7192 41.8671 96.1532 42.6959C106.654 44.3003 115.857 48.8899 124.833 54.1058C127.507 55.6587 130.063 57.5624 132.284 59.7118C137.296 64.5704 142.386 69.3141 146.381 75.2047C151.354 82.52 155.404 90.1832 157.765 98.6658C159.102 103.481 160.463 108.425 160.736 113.37C161.104 120.016 161.432 126.715 160.15 133.41C159.063 139.092 157.765 144.661 155.717 150.061C155.381 150.948 155.029 151.83 154.505 153.185C157.085 151.917 159.001 150.655 161.112 150.02C164.216 149.085 166.28 146.956 167.82 144.461C170.228 140.576 172.308 136.478 174.326 132.368C178.946 122.913 180.651 112.671 181.253 102.346C181.683 94.9769 179.932 87.7039 178.024 80.5255C176.186 73.5964 173.567 67.1084 169.697 61.0512C167.203 57.1558 164.294 53.6374 161.487 50.0016C157.867 45.3198 153.426 41.7185 148.766 38.2868C143.715 34.5682 138.211 31.5219 132.401 29.2803C124.543 26.2459 116.49 23.6798 107.842 24.0293C103.511 24.2044 99.1713 24.0379 94.8398 24.1341C93.3776 24.1669 91.8999 24.4241 90.469 24.7705C86.1765 25.8127 81.7981 26.6494 77.6462 28.1318C73.4788 29.6236 69.5381 31.7824 65.5115 33.6816C64.9955 33.9248 64.4481 34.2798 64.1354 34.734C62.2276 37.4878 60.3823 40.286 57.9819 43.8585ZM158.477 121.601C158.055 117.177 157.859 112.717 157.148 108.339C156.491 104.278 155.639 100.178 154.247 96.3194C151.487 88.6445 147.82 81.3949 142.808 74.8686C138.25 68.9325 133.081 63.6384 127.069 59.1786C121.205 54.8251 114.817 51.4208 108.007 48.7835C100.641 45.932 92.9241 44.6412 85.1366 43.9218C76.4733 43.122 68.0448 45.1095 59.6083 46.6741C58.3885 46.8984 56.8717 47.6623 56.2853 48.6482C54.7685 51.1815 53.4157 53.8915 52.5166 56.6961C51.4454 60.0465 51.0154 63.597 50.1162 67.0107C48.2553 74.0397 48.3962 81.2307 49.0295 88.3004C49.483 93.3678 50.648 98.4485 52.2274 103.406C53.9475 108.79 55.9804 113.971 58.7873 118.875C61.6021 123.793 65.1049 128.158 68.6546 132.56C72.1809 136.921 76.3717 140.319 80.7582 143.625C88.0687 149.136 96.1846 152.979 105.012 155.273C109.852 156.532 114.746 157.947 119.688 158.379C129.203 159.209 138.609 158.162 147.812 155.316C150.259 154.558 151.612 153.228 152.48 151.05C156.256 141.607 158.313 131.834 158.477 121.601ZM70.273 27.6447C72.7906 26.819 75.3161 26.0207 77.826 25.1622C85.4337 22.5554 93.182 20.8165 101.29 21.259C102.338 21.3161 103.386 21.306 104.425 21.2614C113.268 20.8775 121.682 22.5569 130.048 25.5148C139.712 28.9276 148.391 33.848 156.069 40.4518C162.496 45.9836 167.765 52.5404 172.253 59.8557C179.634 71.8935 182.926 85.0338 184.13 98.8558C184.404 102.085 183.849 105.321 183.474 108.568C182.613 116.095 181.237 123.432 178.149 130.374C176.343 134.431 174.404 138.431 172.527 142.457C172.41 142.659 172.293 142.861 172.175 143.062C172.285 142.855 172.402 142.649 172.512 142.442C173.074 142.285 173.778 142.292 174.177 141.947C178.892 137.868 183.544 133.67 187.312 128.717C193.349 120.792 198.102 112.148 200.612 102.384C202.192 96.2341 203.677 90.1097 203.888 83.6959C204.146 76.0648 203.083 68.6448 201.152 61.3147C198.634 51.7851 194.49 43.0508 188.571 35.1226C184.56 29.744 180.057 24.8612 174.857 20.6546C170.236 16.9219 165.287 13.6169 159.9 11.1134C154.552 8.62696 149.047 6.45336 143.191 5.40018C139.422 4.72147 135.654 3.75978 131.854 3.61747C126.537 3.41732 121.212 3.22892 115.864 4.25704C109.039 5.56825 102.181 6.54174 95.9343 9.8327C92.5331 11.62 88.9833 13.1353 85.6995 15.1041C79.9684 18.5342 74.4561 22.2903 70.273 27.6477C70.1557 27.8417 70.0307 28.0355 69.9056 28.2302C70.0307 28.0348 70.1479 27.8394 70.273 27.6447ZM136.655 174.748C135.247 175.153 133.754 175.375 132.448 175.993C125.951 179.072 118.929 180.182 111.932 180.934C107.921 181.364 103.824 181.547 99.6717 181.263C91.5089 180.702 83.5964 179.365 75.9182 176.553C64.753 172.463 54.9482 166.153 46.6369 157.727C40.0691 151.069 34.7679 143.439 30.8585 134.837C25.9483 124.037 23.0241 112.884 23.5322 100.939C23.6731 97.5133 23.1101 93.9738 23.7826 90.6696C25.8778 80.255 28.3957 69.9248 34.2598 60.8042C34.4083 60.5782 34.3457 60.2217 34.3848 59.9261C34.5099 59.7236 34.6272 59.5203 34.7522 59.3177C34.635 59.5265 34.5177 59.736 34.4083 59.9456C33.6264 60.3061 32.649 60.4805 32.0939 61.0575C27.7545 65.5494 23.329 69.9702 19.2554 74.6974C11.7416 83.431 8.01203 94.045 4.96268 104.932C4.48574 106.627 4.01664 108.407 4.04012 110.142C4.14949 118.901 2.91416 127.717 4.87669 136.399C5.52571 139.263 6.73756 142.005 7.32397 144.877C8.62191 151.265 11.7963 156.76 15.1271 162.201C20.2953 170.669 27.0507 177.736 34.9321 183.68C40.7493 188.068 47.1373 191.573 54.0491 193.942C60.0461 195.995 65.9727 198.497 72.5327 198.096C79.9136 200.219 87.3806 198.755 94.5973 197.683C101.978 196.588 109.273 194.239 115.896 190.456C118.851 188.77 121.799 187.06 124.645 185.203C129.133 182.285 133.378 179.071 136.631 174.731C136.756 174.535 136.889 174.338 137.014 174.142C136.889 174.345 136.772 174.546 136.655 174.748ZM148.312 158.603C147.14 158.748 145.951 158.835 144.786 159.047C140.884 159.765 137.006 160.967 133.074 161.179C125.372 161.594 117.686 161.338 110.055 159.628C102.479 157.931 95.1602 155.474 88.4283 151.815C78.037 146.167 68.9673 138.711 61.8992 129.076C56.6996 121.98 52.4618 114.266 49.8582 105.901C46.9027 96.4038 45.1826 86.5889 46.0505 76.5394C46.3554 73.021 46.7775 69.4892 47.4969 66.0364C48.6619 60.4781 49.8425 54.9088 52.4462 49.3667C50.6636 50.0634 49.3578 50.4121 48.2163 51.0517C45.3936 52.6326 42.2036 53.7336 40.2097 56.4976C32.7037 66.9239 28.1063 78.6654 26.6208 91.2818C25.706 99.031 25.6121 107.034 27.2541 114.873C28.591 121.254 30.2877 127.505 33.0713 133.417C37.7391 143.335 44.1504 151.917 52.415 159.171C61.4847 167.133 71.7195 172.857 83.4086 175.871C86.3954 176.641 89.5229 176.823 92.5331 177.517C99.3355 179.085 106.255 178.689 113.003 178.023C119.985 177.335 126.912 175.564 133.488 172.737C140.236 169.836 145.99 166.059 148.297 158.588C148.414 158.394 148.539 158.199 148.664 158.004C148.547 158.204 148.43 158.404 148.312 158.603ZM159.947 154.095C155.443 155.631 151.922 158.816 149.383 163.65C153.418 160.208 157.312 157.875 159.978 154.122C160.111 154.059 160.259 154.017 160.361 153.923C160.424 153.862 160.424 153.727 160.455 153.624C160.283 153.781 160.119 153.938 159.947 154.095ZM56.8247 40.2126C54.6198 41.1125 50.2648 44.7413 47.8018 47.8085C52.6808 47.2088 55.5425 44.6545 56.8091 40.1962C56.9341 39.9851 57.0515 39.7739 57.1766 39.5628C57.0593 39.7794 56.942 39.996 56.8247 40.2126ZM82.4469 201.806C63.0954 201.477 46.9808 196.228 32.6647 185.321C21.6793 176.955 13.1724 166.619 7.58196 154.103C4.03229 146.157 1.37389 137.807 1.10807 128.915C1.02981 126.415 0.302617 123.916 0.380883 121.433C0.818782 107.314 3.98534 93.826 11.1239 81.5716C14.9237 75.0531 19.2789 68.7425 24.9554 63.6682C29.3651 59.7298 34.2753 56.3545 38.9588 52.7273C39.5374 52.2762 40.2567 51.9142 40.679 51.3419C46.3241 43.6865 53.5878 37.8724 61.5707 32.8527C62.423 32.3148 63.0875 31.4516 63.7991 30.6995C67.0752 27.242 70.0463 23.4327 73.6742 20.3927C77.7323 16.9869 81.962 13.7733 86.7161 11.1688C92.7364 7.86464 98.9368 5.26646 105.52 3.42744C114.473 0.9247 123.628 0.0309635 132.839 0.825345C137.945 1.26563 143.011 2.52836 148.015 3.7488C158.399 6.28289 167.414 11.545 175.913 17.925C184.904 24.6743 191.722 33.2977 196.992 42.9687C201.652 51.5233 204.608 60.8307 205.913 70.6597C206.484 74.9788 206.484 79.2392 206.609 83.5325C206.758 88.6015 205.835 93.575 204.702 98.4531C202.434 108.198 198.54 117.369 192.989 125.668C187.938 133.223 181.949 140.051 174.286 145.194C172.449 146.43 170.549 147.589 168.743 148.877C167.781 149.563 166.804 150.328 166.108 151.26C160.478 158.724 153.418 164.546 145.537 169.452C145.036 169.76 144.52 170.114 144.176 170.572C139.618 176.733 134.035 181.933 127.921 186.409C123.284 189.806 118.155 192.718 112.878 195.006C107.358 197.402 101.486 199.19 95.5981 200.501C90.8677 201.555 85.895 201.498 82.4469 201.806Z" fill="#F100BC"/>
</svg>
