<svg width="295" height="66" viewBox="0 0 295 66" fill="none" xmlns="http://www.w3.org/2000/svg">
<path d="M32 33H263.5" stroke="white" stroke-dasharray="2 2"/>
<circle cx="147" cy="33" r="21" fill="#36D233"/>
<path fill-rule="evenodd" clip-rule="evenodd" d="M157.573 26.3395L145.536 41.3903L136.08 33.5095L137.864 31.3685L145.135 37.4262L155.399 24.6L157.573 26.3395Z" fill="white"/>
<rect x="0.5" y="0.5" width="65" height="65" rx="32.5" fill="#141618"/>
<rect x="0.5" y="0.5" width="65" height="65" rx="32.5" stroke="white"/>
<path d="M54.0997 30.8249L35.1879 11.8998C33.9891 10.7001 32.041 10.7001 30.8421 11.8998L11.9304 30.8249C10.7315 32.0246 10.7315 33.9741 11.9304 35.1738L30.8421 54.099C32.041 55.2987 33.9891 55.2987 35.1879 54.099L54.0997 35.1738C55.2686 33.9741 55.2686 32.0246 54.0997 30.8249ZM34.5885 48.4304C33.7193 49.3002 32.2807 49.3002 31.4116 48.4304L17.565 34.574C16.6958 33.7042 16.6958 32.2646 17.565 31.3948L31.4116 17.5383C32.2807 16.6685 33.7193 16.6685 34.5885 17.5383L48.4352 31.3948C49.3043 32.2646 49.3043 33.7042 48.4352 34.574L34.5885 48.4304Z" fill="#C5B582"/>
<path d="M42.6208 46.601L41.3315 47.8906C41.7813 47.4407 42.231 47.0208 42.6208 46.601Z" fill="#958E62"/>
<path d="M54.1293 30.855C51.4919 28.2157 46.5766 23.3269 46.5766 23.3269C46.9962 23.7468 47.4158 24.1667 47.8654 24.6166L46.5766 23.3269C36.3265 13.3695 32.2804 16.5786 31.5611 17.3584C31.5012 17.3884 31.4412 17.4484 31.4113 17.5084L17.5347 31.3948C16.6655 32.2646 16.6655 33.7043 17.5347 34.574L31.4113 48.4605C32.2804 49.3303 33.719 49.3303 34.5882 48.4605L48.4648 34.574C49.274 33.7642 49.334 32.5345 48.6746 31.6348C49.5438 32.5645 52.2112 36.7035 42.6204 46.571L54.0694 35.1139C55.2383 33.9742 55.3582 32.0847 54.1293 30.855ZM44.2988 34.1541L34.1386 44.3215C33.5092 44.9514 32.4603 44.9514 31.8009 44.3215L21.6407 34.1541C21.0113 33.5243 21.0113 32.4746 21.6407 31.8147L31.8009 21.6473C32.4303 21.0175 33.4793 21.0175 34.1386 21.6473L44.2988 31.8147C44.9582 32.4746 44.9582 33.5243 44.2988 34.1541Z" fill="#958E62"/>
<path d="M25.897 22.9669L26.8264 22.0371C26.4966 22.367 26.1968 22.667 25.897 22.9669Z" fill="#C5B582"/>
<path d="M22.9899 40.0325C22.6902 39.7326 22.3605 39.4327 22.0608 39.1028L22.9899 40.0325C31.3518 48.1605 34.1092 44.3215 34.1092 44.3215L34.1391 44.2915C33.4198 44.9513 32.4308 44.9213 31.8014 44.2915L21.6112 34.0941C21.6112 34.0941 17.7449 31.3348 25.8971 22.9669L17.5052 31.3648C16.636 32.2345 16.5761 33.6142 17.4752 34.514" fill="#C5B582"/>
<path d="M23.3794 19.3679L24.6686 18.0782C24.1889 18.5281 23.7692 18.948 23.3794 19.3679Z" fill="#023756"/>
<path d="M40.0732 42.9719C39.7735 43.2718 39.4738 43.6017 39.1441 43.9016L40.0732 42.9719C48.3452 34.664 44.3591 31.8447 44.3591 31.8447L44.3291 31.8147C44.9884 32.5346 44.9585 33.5243 44.3291 34.1541L34.1389 44.3515C34.1389 44.3515 31.5914 47.8906 23.9787 40.9624L17.535 34.514C17.535 34.514 12.29 30.765 23.3793 19.3679L11.9304 30.825C10.7615 31.9947 10.6416 33.8842 11.8704 35.1139C14.5079 37.7532 30.7822 54.039 30.7822 54.039C30.7822 54.039 30.7822 54.0391 30.7822 54.0091L19.3932 42.612C18.9736 42.1921 18.554 41.7722 18.1044 41.3223L19.3932 42.612C29.3136 52.2695 33.4496 49.5402 34.3487 48.6704C34.4087 48.6104 34.4686 48.5504 34.5285 48.4905C36.4767 46.571 40.0732 42.9719 40.0732 42.9719Z" fill="#023756"/>
<path d="M19.3937 42.6418L18.1045 41.3522C18.5542 41.8021 18.974 42.2219 19.3937 42.6418Z" fill="#0F666D"/>
<path d="M54.01 35.2038L42.621 46.6009C42.2014 47.0207 41.7817 47.4406 41.3322 47.8905L42.621 46.6009C52.2117 36.7334 49.5743 32.5944 48.7051 31.6647C48.6451 31.6047 48.5852 31.5147 48.5252 31.4547C47.0866 30.0151 44.7489 27.7057 43.64 26.566C43.7299 26.656 43.8498 26.7759 43.9397 26.8659L43.0106 25.9361C34.6487 17.8082 31.8913 21.6472 31.8913 21.6472L31.8613 21.6772C32.5806 21.0174 33.5697 21.0474 34.1991 21.6772L44.3892 31.8746C44.3892 31.8746 47.8359 34.364 41.2723 41.7421L34.5587 48.4604C34.5587 48.4604 30.8123 53.709 19.4233 42.6119L30.8723 54.0689C32.0412 55.2386 33.9293 55.3586 35.1581 54.1289C37.7357 51.5196 54.0399 35.2038 54.01 35.2038Z" fill="#0F666D"/>
<path d="M42.9805 25.9362C42.9805 25.9362 43.2204 26.1761 43.6101 26.566C43.4002 26.3561 43.1903 26.1461 42.9805 25.9362Z" fill="#0F666D"/>
<rect x="229.5" y="0.5" width="65" height="65" rx="32.5" fill="#141618"/>
<rect x="229.5" y="0.5" width="65" height="65" rx="32.5" stroke="white"/>
<path d="M282.405 12.0001L264.708 25.1293L267.995 17.3834L282.405 12.0001Z" fill="#E17726" stroke="#E17726" stroke-width="0.712817" stroke-linecap="round" stroke-linejoin="round"/>
<path d="M241.595 12.0005L259.131 25.2539L256.005 17.3837L241.595 12.0005Z" fill="#E27625" stroke="#E27625" stroke-width="0.712817" stroke-linecap="round" stroke-linejoin="round"/>
<path d="M276.043 42.4347L271.335 49.6485L281.409 52.4189L284.288 42.594L276.043 42.4347Z" fill="#E27625" stroke="#E27625" stroke-width="0.712817" stroke-linecap="round" stroke-linejoin="round"/>
<path d="M239.729 42.5935L242.59 52.4184L252.664 49.6481L247.974 42.4342L239.729 42.5935Z" fill="#E27625" stroke="#E27625" stroke-width="0.712817" stroke-linecap="round" stroke-linejoin="round"/>
<path d="M252.112 30.2456L249.305 34.4928L259.291 34.9373L258.953 24.1871L252.112 30.2456Z" fill="#E27625" stroke="#E27625" stroke-width="0.712817" stroke-linecap="round" stroke-linejoin="round"/>
<path d="M271.887 30.2456L264.939 24.0629L264.708 34.9373L274.694 34.4928L271.887 30.2456Z" fill="#E27625" stroke="#E27625" stroke-width="0.712817" stroke-linecap="round" stroke-linejoin="round"/>
<path d="M252.664 49.6488L258.688 46.7154L253.498 42.6653L252.664 49.6488Z" fill="#E27625" stroke="#E27625" stroke-width="0.712817" stroke-linecap="round" stroke-linejoin="round"/>
<path d="M265.312 46.7154L271.337 49.6488L270.502 42.6653L265.312 46.7154Z" fill="#E27625" stroke="#E27625" stroke-width="0.712817" stroke-linecap="round" stroke-linejoin="round"/>
<path d="M271.337 49.6482L265.312 46.7147L265.792 50.6423L265.74 52.2946L271.337 49.6482Z" fill="#D5BFB2" stroke="#D5BFB2" stroke-width="0.712817" stroke-linecap="round" stroke-linejoin="round"/>
<path d="M252.663 49.648L258.26 52.2944L258.225 50.6422L258.688 46.7146L252.663 49.648Z" fill="#D5BFB2" stroke="#D5BFB2" stroke-width="0.712817" stroke-linecap="round" stroke-linejoin="round"/>
<path d="M258.367 40.0707L253.356 38.597L256.892 36.9797L258.367 40.0707Z" fill="#233447" stroke="#233447" stroke-width="0.712817" stroke-linecap="round" stroke-linejoin="round"/>
<path d="M265.632 40.0703L267.108 36.9794L270.661 38.5966L265.632 40.0703Z" fill="#233447" stroke="#233447" stroke-width="0.712817" stroke-linecap="round" stroke-linejoin="round"/>
<path d="M252.664 49.6488L253.534 42.4342L247.973 42.5935L252.664 49.6488Z" fill="#CC6228" stroke="#CC6228" stroke-width="0.712817" stroke-linecap="round" stroke-linejoin="round"/>
<path d="M270.466 42.4342L271.336 49.6488L276.044 42.5935L270.466 42.4342Z" fill="#CC6228" stroke="#CC6228" stroke-width="0.712817" stroke-linecap="round" stroke-linejoin="round"/>
<path d="M274.694 34.4929L264.708 34.9374L265.632 40.0702L267.108 36.9797L270.66 38.5967L274.694 34.4929Z" fill="#CC6228" stroke="#CC6228" stroke-width="0.712817" stroke-linecap="round" stroke-linejoin="round"/>
<path d="M253.356 38.5965L256.891 36.9795L258.367 40.07L259.291 34.9373L249.305 34.4928L253.356 38.5965Z" fill="#CC6228" stroke="#CC6228" stroke-width="0.712817" stroke-linecap="round" stroke-linejoin="round"/>
<path d="M249.305 34.4928L253.498 42.6653L253.356 38.5965L249.305 34.4928Z" fill="#E27525" stroke="#E27525" stroke-width="0.712817" stroke-linecap="round" stroke-linejoin="round"/>
<path d="M270.66 38.5964L270.501 42.6651L274.694 34.4927L270.66 38.5964Z" fill="#E27525" stroke="#E27525" stroke-width="0.712817" stroke-linecap="round" stroke-linejoin="round"/>
<path d="M259.291 34.9373L258.367 40.07L259.539 46.1285L259.788 38.152L259.291 34.9373Z" fill="#E27525" stroke="#E27525" stroke-width="0.712817" stroke-linecap="round" stroke-linejoin="round"/>
<path d="M264.709 34.937L264.229 38.1343L264.46 46.1282L265.632 40.0697L264.709 34.937Z" fill="#E27525" stroke="#E27525" stroke-width="0.712817" stroke-linecap="round" stroke-linejoin="round"/>
<path d="M265.632 40.0701L264.46 46.1285L265.312 46.7148L270.501 42.6653L270.66 38.5966L265.632 40.0701Z" fill="#F5841F" stroke="#F5841F" stroke-width="0.712817" stroke-linecap="round" stroke-linejoin="round"/>
<path d="M253.356 38.5967L253.498 42.6654L258.687 46.7149L259.539 46.1287L258.367 40.0702L253.356 38.5967Z" fill="#F5841F" stroke="#F5841F" stroke-width="0.712817" stroke-linecap="round" stroke-linejoin="round"/>
<path d="M265.74 52.2937L265.792 50.6416L265.349 50.2514H258.65L258.225 50.6416L258.26 52.2937L252.663 49.6476L254.618 51.2454L258.598 54H265.402L269.382 51.2454L271.336 49.6476L265.74 52.2937Z" fill="#C0AC9D" stroke="#C0AC9D" stroke-width="0.712817" stroke-linecap="round" stroke-linejoin="round"/>
<path d="M265.313 46.7149L264.46 46.1287H259.539L258.687 46.7149L258.225 50.6419L258.65 50.2516H265.349L265.792 50.6419L265.313 46.7149Z" fill="#161616" stroke="#161616" stroke-width="0.712817" stroke-linecap="round" stroke-linejoin="round"/>
<path d="M283.151 25.9831L284.644 18.7342L282.406 11.9999L265.312 24.6862L271.888 30.2463L281.179 32.9659L283.223 30.5665L282.334 29.9278L283.755 28.6292L282.672 27.7769L284.093 26.6936L283.151 25.9831Z" fill="#763E1A" stroke="#763E1A" stroke-width="0.712817" stroke-linecap="round" stroke-linejoin="round"/>
<path d="M239.356 18.7346L240.867 25.9834L239.908 26.694L241.329 27.7773L240.245 28.6296L241.667 29.9281L240.778 30.5669L242.822 32.9663L252.113 30.2466L258.688 24.6866L241.595 12.0002L239.356 18.7346Z" fill="#763E1A" stroke="#763E1A" stroke-width="0.712817" stroke-linecap="round" stroke-linejoin="round"/>
<path d="M281.178 32.9654L271.887 30.2457L274.694 34.4932L270.501 42.6661L276.043 42.5943H284.288L281.178 32.9654Z" fill="#F5841F" stroke="#F5841F" stroke-width="0.712817" stroke-linecap="round" stroke-linejoin="round"/>
<path d="M252.113 30.2458L242.822 32.9655L239.729 42.5944H247.974L253.499 42.6662L249.306 34.4933L252.113 30.2458Z" fill="#F5841F" stroke="#F5841F" stroke-width="0.712817" stroke-linecap="round" stroke-linejoin="round"/>
<path d="M264.708 34.9374L265.312 24.6859L267.995 17.3832H256.004L258.687 24.6859L259.29 34.9374L259.521 38.1696L259.539 46.1286H264.46L264.477 38.1696L264.708 34.9374Z" fill="#F5841F" stroke="#F5841F" stroke-width="0.712817" stroke-linecap="round" stroke-linejoin="round"/>
</svg>
