<svg width="720" height="900" viewBox="0 0 720 900" fill="none" xmlns="http://www.w3.org/2000/svg">
<path d="M599.348 611.965C598.435 612.956 597.925 613.646 597.285 614.18C594.566 616.451 592.61 619.43 589.882 621.745C586.155 624.91 582.868 628.595 579.425 632.089C578.954 632.567 578.669 633.226 578.22 633.922H599.348V611.965ZM621.196 634.589C614.161 641.622 607.032 648.747 600.044 655.732C602.929 656.072 619.294 655.968 621.196 655.541V634.589ZM621.709 677.567C626.485 677.975 641.227 677.82 643.011 677.328V656.281C635.945 663.342 628.846 670.435 621.709 677.567ZM643.108 612.183C642.605 612.606 642.336 612.801 642.104 613.033C636.063 619.067 630.042 625.122 623.968 631.124C623.1 631.983 622.839 632.874 622.846 634.042C622.886 640.974 622.866 647.906 622.866 654.839C622.865 655.431 622.886 656.025 622.841 656.614C622.782 657.396 622.32 657.843 621.541 657.897C620.952 657.938 620.358 657.918 619.767 657.918C612.918 657.919 606.071 657.945 599.223 657.897C597.876 657.887 596.863 658.201 595.873 659.209C590.185 664.998 584.419 670.711 578.686 676.456C578.378 676.764 578.129 677.131 577.709 677.646C578.339 677.678 578.67 677.709 579.001 677.709C591.598 677.712 604.195 677.689 616.792 677.745C618.116 677.75 618.982 677.287 619.871 676.392C627.079 669.133 634.303 661.89 641.586 654.708C642.706 653.604 643.152 652.516 643.144 650.945C643.079 638.771 643.108 626.596 643.108 614.423V612.183ZM555.484 655.781C556.443 655.845 556.77 655.886 557.098 655.886C569.872 655.889 582.646 655.876 595.42 655.91C596.605 655.913 597.502 655.623 598.317 654.732C600.766 652.059 603.229 649.395 605.783 646.823C607.741 644.852 609.912 643.093 611.868 641.121C614.541 638.428 617.043 635.566 619.735 632.894C620.839 631.798 621.326 630.725 621.317 629.137C621.246 617.125 621.278 605.112 621.278 593.099V590.891C620.375 591.523 619.61 591.916 619.025 592.492C615.528 595.934 612.06 599.404 608.614 602.898C607.732 603.792 607.031 604.866 606.136 605.745C604.878 606.981 603.542 608.144 602.19 609.277C601.259 610.057 601.017 610.991 601.025 612.171C601.069 619.023 601.047 625.875 601.046 632.728C601.046 633.32 601.08 633.915 601.035 634.504C600.946 635.664 600.648 635.967 599.491 636.065C598.903 636.115 598.308 636.078 597.715 636.078C591.201 636.078 584.686 636.152 578.174 636.034C576.144 635.998 574.689 636.559 573.333 638.088C571.315 640.362 569.058 642.424 566.912 644.583C566.436 645.062 565.997 645.577 565.539 646.073C564.341 647.371 563.203 648.733 561.928 649.951C559.985 651.808 557.946 653.564 555.484 655.781ZM644.698 678.736C643.752 679.786 642.655 679.747 641.549 679.746C634.784 679.735 628.019 679.786 621.257 679.707C619.696 679.688 618.591 680.112 617.484 681.243C611.983 686.862 606.39 692.39 600.831 697.952C600.42 698.363 600.019 698.783 599.397 699.421H664.928C664.928 698.724 664.93 698.153 664.928 697.581C664.895 676.703 664.861 655.825 664.821 634.946C664.821 634.876 664.749 634.788 664.686 634.738C664.627 634.692 664.536 634.687 664.398 634.645C664.225 634.745 663.978 634.828 663.812 634.993C657.705 641.082 651.618 647.193 645.487 653.257C644.714 654.022 644.693 654.861 644.694 655.795C644.702 661.291 644.698 666.787 644.698 672.283V678.736ZM599.464 569.172C597.028 570.979 535.79 632.354 534.733 634.054H536.055C548.488 634.054 560.921 634.029 573.353 634.087C574.851 634.094 575.849 633.567 576.866 632.54C583.829 625.508 590.819 618.504 597.873 611.564C599.062 610.394 599.504 609.216 599.497 607.576C599.437 595.566 599.464 583.556 599.464 571.546V569.172ZM594.448 657.916H591.605C579.592 657.916 567.579 657.923 555.565 657.904C554.606 657.902 553.477 658.28 552.73 656.873C554.128 655 556.013 653.447 557.685 651.707C559.326 649.999 561.024 648.345 562.699 646.67C564.434 644.936 566.169 643.201 567.91 641.472C569.584 639.809 571.266 638.153 573.234 636.207C572.117 636.15 571.406 636.083 570.694 636.082C558.342 636.076 545.991 636.084 533.639 636.066C532.689 636.064 531.545 636.445 531 635.174C531.748 634.032 598.467 566.957 599.693 566.168C599.943 566.007 600.32 566.044 600.576 566C600.711 566.147 600.771 566.206 600.823 566.271C600.875 566.336 600.94 566.401 600.959 566.477C600.998 566.64 601.019 566.809 601.033 566.977C601.046 567.145 601.044 567.315 601.044 567.484C601.051 580.852 601.057 594.218 601.068 607.585C601.068 607.662 601.134 607.738 601.282 608.065C608.235 601.129 615.123 594.258 622.191 587.206C622.489 587.919 622.769 588.344 622.832 588.798C622.924 589.463 622.861 590.149 622.861 590.826C622.862 602.754 622.862 614.683 622.862 626.612V629.37C625.799 627.715 627.673 625.24 629.826 623.08C632.976 619.92 636.131 616.765 639.292 613.617C640.371 612.544 641.476 611.499 642.57 610.442C643.055 609.974 643.502 609.406 644.331 609.77C644.368 609.809 644.429 609.867 644.481 609.932C644.532 609.997 644.616 610.068 644.616 610.136C644.622 623.747 644.622 637.357 644.622 651.56C647.277 648.997 649.473 646.744 651.703 644.527C653.983 642.26 656.253 639.984 658.526 637.711C660.788 635.449 663.049 633.186 665.521 630.713C665.941 631.406 666.336 631.83 666.46 632.322C666.601 632.879 666.503 633.498 666.503 634.09C666.504 655.495 666.503 676.899 666.503 698.303V700.743C664.42 701.204 599.412 701.285 596.47 700.844C596.567 700.395 596.534 699.856 596.783 699.538C597.354 698.812 598.059 698.189 598.717 697.531C603.92 692.325 609.125 687.12 614.328 681.915C614.919 681.323 615.505 680.726 616.352 679.87C615.298 679.814 614.586 679.746 613.875 679.746C601.777 679.739 589.679 679.75 577.581 679.724C576.552 679.722 575.181 680.227 574.687 678.844C574.255 677.636 575.504 677.089 576.183 676.425C579.381 673.301 582.704 670.302 585.852 667.128C588.698 664.26 591.374 661.225 594.448 657.916Z" fill="#00A3FF"/>
<path d="M629.349 295.418C664.148 260.618 698.737 226.028 733.388 191.374C731.19 185.183 728.96 178.672 726.747 172.641C692.079 207.306 657.49 241.893 622.723 276.658C624.837 282.65 627.083 289.006 629.349 295.418ZM631.301 297.517C637.197 299.603 642.953 301.549 648.629 303.698C650.565 304.431 651.772 304.094 653.225 302.637C686.418 269.361 719.664 236.138 752.889 202.9C753.566 202.226 754.195 201.506 755.129 200.504C748.298 197.927 741.646 195.763 735.392 193.447C700.693 228.14 666.157 262.671 631.301 297.517ZM754.856 197.768C754.893 197.853 754.909 197.951 754.961 198.018C754.998 198.06 755.087 198.055 755.155 198.071C755.056 197.973 754.951 197.876 754.846 197.779C754.652 197.039 754.536 196.269 754.253 195.565C752.312 190.717 750.276 185.905 748.408 181.029C747.942 179.812 747.254 179.204 746.1 178.739C741.252 176.792 736.447 174.736 731.61 172.763C730.886 172.467 730.062 172.401 729.055 172.177C731.122 178.163 733.095 183.817 735.02 189.487C735.424 190.682 736.09 191.472 737.318 191.856C739.527 192.546 741.714 193.309 743.907 194.051C747.559 195.286 751.21 196.529 754.856 197.768ZM620 275.3C621.348 274.014 622.634 272.867 623.825 271.633C625.488 269.909 627.035 268.073 628.719 266.371C630.409 264.669 632.203 263.077 633.939 261.427C635.12 260.307 636.316 259.199 637.449 258.03C639.181 256.236 640.828 254.357 642.585 252.584C644.201 250.954 645.953 249.456 647.575 247.832C649.269 246.137 650.869 244.351 652.527 242.623C654.059 241.028 655.58 239.419 657.17 237.885C658.896 236.223 660.753 234.695 662.448 233.005C664.006 231.452 665.37 229.703 666.923 228.147C668.481 226.59 670.223 225.221 671.781 223.666C673.476 221.973 675.023 220.135 676.681 218.408C678.213 216.815 679.813 215.285 681.382 213.727C683.281 211.84 685.18 209.957 687.069 208.064C688.291 206.843 689.472 205.581 690.715 204.385C692.299 202.858 693.968 201.419 695.531 199.868C697.226 198.179 698.826 196.391 700.494 194.67C702.099 193.013 703.736 191.385 705.357 189.747C707.309 187.778 709.266 185.813 711.217 183.846C712.435 182.622 713.62 181.366 714.874 180.181C716.542 178.6 718.321 177.13 719.952 175.509C721.579 173.888 723.121 172.173 724.627 170.434C725.886 168.98 726.521 168.65 728.441 169.361C732.066 170.703 735.655 172.149 739.243 173.602C742.113 174.765 744.909 176.131 747.831 177.146C749.033 177.564 749.578 178.274 749.982 179.27C752.501 185.45 754.935 191.668 757.548 197.808C758.455 199.931 757.647 201.174 756.215 202.595C742.533 216.212 728.892 229.878 715.241 243.53C697.519 261.249 679.797 278.966 662.075 296.685C659.468 299.292 656.871 301.908 654.253 304.504C653.702 305.05 653.12 305.573 652.49 306.022C651.761 306.54 651.042 306.71 650.056 306.352C643.246 303.869 636.411 301.451 629.548 299.107C628.656 298.802 628.284 298.234 627.995 297.548C627.287 295.854 626.647 294.131 626.028 292.401C624.061 286.854 622.114 281.3 620 275.3Z" fill="#FF7F15"/>
<path d="M218.987 16.1933C216.63 14.8822 215.214 13.3107 216.107 10.7308C216.619 9.25499 217.935 8.82995 219.418 8.96595C220.968 9.10726 221.962 9.9679 222.097 11.5054C222.183 12.4808 222.25 13.7282 221.739 14.4167C221.107 15.2667 219.864 15.6631 218.987 16.1933Z" fill="#FF15F6"/>
<path d="M278.961 16.255C275.648 13.47 274.994 11.5532 276.588 9.85851C277.727 8.64721 280.04 8.61958 281.217 9.80326C282.851 11.446 282.229 13.3819 278.961 16.255Z" fill="#FF15F6"/>
<path d="M70.1844 -12.679C66.8797 -15.4349 66.2145 -17.3711 67.8022 -19.0681C68.9425 -20.2874 71.248 -20.3148 72.4293 -19.1231C74.0703 -17.4676 73.4469 -15.52 70.1844 -12.679Z" fill="#FF15F6"/>
<path d="M162.986 70.0806C162.913 71.7413 161.372 73.1024 159.565 73.1035C157.653 73.1046 155.899 71.3152 156.118 69.5876C156.338 67.8535 157.824 66.7379 159.801 66.825C161.544 66.9026 163.058 68.4485 162.986 70.0806Z" fill="#FF15F6"/>
<path d="M126.895 -16.7226C127.007 -18.621 128.06 -19.9211 129.509 -19.9476C131.109 -19.9766 133.237 -17.837 133.171 -16.2655C133.103 -14.6448 130.871 -12.6479 129.308 -12.8077C127.705 -12.9711 126.766 -14.4948 126.895 -16.7226Z" fill="#FF15F6"/>
<path d="M155.913 -16.8404C157.031 -18.6407 158.012 -20.2977 160.282 -19.834C161.681 -19.5476 163.041 -17.2155 162.62 -15.8588C162.17 -14.4118 161.543 -12.8269 159.698 -12.8212C157.011 -12.8123 156.94 -15.2772 155.913 -16.8404Z" fill="#FF15F6"/>
<path d="M192.229 -16.3287C192.212 -14.1486 191.036 -12.668 189.412 -12.7837C188.004 -12.8848 186.089 -14.7443 185.953 -16.144C185.803 -17.6932 187.842 -19.8909 189.482 -19.9485C191.082 -20.005 192.245 -18.4719 192.229 -16.3287Z" fill="#FF15F6"/>
<path d="M222.188 -16.2438C222.143 -14.0321 220.946 -12.609 219.289 -12.7947C217.839 -12.9571 215.981 -14.8373 215.896 -16.2277C215.801 -17.7877 217.907 -19.9512 219.523 -19.9549C221.113 -19.9585 222.233 -18.3989 222.188 -16.2438Z" fill="#FF15F6"/>
<path d="M249.138 -12.706C245.717 -15.3384 245.005 -17.1682 246.528 -18.9686C247.594 -20.2308 249.901 -20.3569 251.156 -19.2217C252.881 -17.6606 252.312 -15.6368 249.138 -12.706Z" fill="#FF15F6"/>
<path d="M70.3163 16.2251C66.8859 13.5666 66.1782 11.7582 67.6948 9.96465C68.7547 8.70977 71.0722 8.57591 72.3256 9.69694C74.0537 11.2429 73.4929 13.2542 70.3163 16.2251Z" fill="#FF15F6"/>
<path d="M308.122 -19.9185C309.687 -20.0892 311.914 -18.1094 311.994 -16.4756C312.061 -15.1531 310.327 -13.1355 308.856 -12.8221C307.223 -12.4749 305.861 -13.8515 305.719 -15.9968C305.57 -18.2152 306.506 -19.7421 308.122 -19.9185Z" fill="#FF15F6"/>
<path d="M40.3315 16.2262C36.9442 13.5411 36.2422 11.7008 37.7623 9.93907C38.8348 8.69599 41.1487 8.58865 42.3903 9.72454C44.1117 11.2991 43.5398 13.2893 40.3315 16.2262Z" fill="#FF15F6"/>
<path d="M100.449 16.0879C98.0571 15.6098 96.6121 14.5377 96.9308 11.9101C97.1487 10.1165 98.0125 9.1475 99.8507 8.95094C101.622 8.76183 102.252 9.93059 102.834 11.2099C104.038 13.8598 101.99 14.8458 100.449 16.0879Z" fill="#FF15F6"/>
<path d="M248.826 16.2346C245.623 13.2871 245.051 11.3045 246.76 9.72767C247.998 8.58654 250.309 8.69069 251.388 9.93596C252.923 11.7093 252.23 13.539 248.826 16.2346Z" fill="#FF15F6"/>
<path d="M40.0487 -12.6396C38.4186 -14.0482 36.17 -14.9488 37.4323 -17.5424C38.0897 -18.8924 39.2575 -20.3051 40.9816 -19.8132C41.8937 -19.5528 42.6562 -18.3932 43.2321 -17.4791C43.5403 -16.9899 43.3835 -16.1504 43.2954 -15.4879C43.2326 -15.0153 43.0594 -14.4051 42.717 -14.1525C41.9268 -13.5682 41.0039 -13.1641 40.0487 -12.6396Z" fill="#FF15F6"/>
<path d="M100.477 -12.8678C98.2388 -13.2698 96.6674 -14.1601 96.9203 -16.8232C97.0627 -18.323 97.5907 -19.4474 99.0942 -19.8671C100.39 -20.2292 102.523 -18.8756 103.023 -17.2766C103.751 -14.9518 101.973 -13.9739 100.477 -12.8678Z" fill="#FF15F6"/>
<path d="M279.378 -12.7624C276.474 -13.478 275.352 -14.8513 275.783 -17.313C276.048 -18.8196 276.939 -20.1681 278.375 -19.8308C279.667 -19.5268 281.192 -18.4186 281.768 -17.2492C282.863 -15.0203 280.654 -14.0787 279.378 -12.7624Z" fill="#FF15F6"/>
<path d="M188.694 16.1158C187.136 14.846 185.111 13.7675 186.275 11.5851C186.886 10.4408 188.426 9.38031 189.716 9.12006C191.179 8.82465 191.983 10.2262 192.219 11.7233C192.615 14.2287 191.378 15.5048 188.694 16.1158Z" fill="#FF15F6"/>
<path d="M156.001 128.072C156.68 125.847 157.657 123.913 159.761 124.297C161.102 124.542 162.18 126.228 163.322 127.222C160.045 132.045 159.635 132.076 156.001 128.072Z" fill="#FF15F6"/>
<path d="M130.524 16.1666C127.597 15.444 126.501 14.0532 126.917 11.6063C127.174 10.0942 128.077 8.76185 129.511 9.10394C130.799 9.41102 132.312 10.5203 132.888 11.6891C133.989 13.9204 131.758 14.8479 130.524 16.1666Z" fill="#FF15F6"/>
<path d="M163.018 99.214C161.92 101.144 160.445 102.743 158.156 101.802C157.205 101.411 156.216 99.7198 156.256 98.6562C156.306 97.2982 157.067 95.8277 159.085 95.6981C161.761 95.5249 162.637 97.0231 163.018 99.214Z" fill="#FF15F6"/>
<path d="M103.238 41.1542C103.176 43.0998 101.953 44.2282 99.9728 44.1665C97.9965 44.106 96.8861 42.9128 96.9499 40.9184C97.0137 38.9453 98.1931 37.8615 100.216 37.9124C102.214 37.9624 103.302 39.1291 103.238 41.1542Z" fill="#FF15F6"/>
<path d="M308.148 124.156C309.644 124.03 311.738 125.584 311.954 126.98C312.191 128.52 310.309 130.746 308.62 130.925C307.147 131.081 305.935 129.863 305.723 128.015C305.488 125.966 306.542 124.292 308.148 124.156Z" fill="#FF15F6"/>
<path d="M40.2479 124.656C42.2034 124.673 43.3742 125.888 43.3358 127.857C43.2979 129.824 42.1031 130.981 40.1364 130.954C38.1602 130.929 37.0219 129.75 37.0447 127.755C37.0675 125.798 38.265 124.639 40.2479 124.656Z" fill="#FF15F6"/>
<path d="M70.2067 124.655C72.1559 124.688 73.327 125.913 73.2875 127.875C73.2485 129.837 72.0476 130.988 70.0718 130.958C68.0983 130.926 66.9689 129.746 66.9932 127.739C67.0171 125.777 68.2218 124.621 70.2067 124.655Z" fill="#FF15F6"/>
<path d="M278.983 95.7428C280.939 95.7768 282.098 96.9849 282.065 98.958C282.033 100.922 280.843 102.06 278.852 102.033C276.872 102.006 275.743 100.832 275.767 98.8231C275.792 96.868 277 95.7099 278.983 95.7428Z" fill="#FF15F6"/>
<path d="M40.1197 37.9125C42.1177 37.8828 43.2984 39.0037 43.3405 40.9694C43.383 42.9595 42.253 44.1294 40.2598 44.1612C38.266 44.1921 37.0743 43.0594 37.0407 41.1033C37.0064 39.0951 38.1196 37.9422 40.1197 37.9125Z" fill="#FF15F6"/>
<path d="M312 12.5753C312.014 13.9481 310.073 15.7512 308.495 15.8308C307.161 15.8967 305.788 14.3943 305.718 12.792C305.622 10.5904 306.629 9.08275 308.25 8.99664C309.867 8.91064 311.983 10.9294 312 12.5753Z" fill="#FF15F6"/>
<path d="M73.2921 40.9342C73.3425 42.9329 72.2239 44.1177 70.2425 44.1622C68.2446 44.2069 67.0378 43.0827 66.9953 41.1362C66.9512 39.1247 68.0505 37.9624 70.0443 37.9124C72.0418 37.8614 73.2424 38.9792 73.2921 40.9342Z" fill="#FF15F6"/>
<path d="M249.215 124.655C251.119 124.785 252.246 126.108 252.113 128.056C251.983 129.968 250.67 131.09 248.719 130.96C246.829 130.834 245.694 129.501 245.814 127.555C245.931 125.673 247.279 124.523 249.215 124.655Z" fill="#FF15F6"/>
<path d="M278.965 124.654C280.914 124.69 282.09 125.907 282.065 127.863C282.041 129.832 280.85 130.984 278.866 130.96C276.902 130.938 275.756 129.749 275.767 127.75C275.78 125.786 276.985 124.619 278.965 124.654Z" fill="#FF15F6"/>
<path d="M249.201 95.7428C251.105 95.8596 252.241 97.1772 252.118 99.1237C251.997 101.033 250.696 102.154 248.737 102.035C246.842 101.919 245.7 100.6 245.815 98.6573C245.926 96.766 247.253 95.6237 249.201 95.7428Z" fill="#FF15F6"/>
<path d="M43.3421 70.0498C43.2965 71.9996 42.0949 73.128 40.1063 73.0865C38.1089 73.0451 37.006 71.8891 37.0454 69.8799C37.0842 67.9131 38.2691 66.7985 40.2764 66.8388C42.2645 66.8792 43.3883 68.0555 43.3421 70.0498Z" fill="#FF15F6"/>
<path d="M222.171 98.94C222.135 100.908 220.942 102.059 218.969 102.031C216.987 102.004 215.846 100.826 215.873 98.8369C215.898 96.8829 217.108 95.7131 219.078 95.7376C221.034 95.7631 222.207 96.9775 222.171 98.94Z" fill="#FF15F6"/>
<path d="M155.964 11.9314C157.164 10.2049 158.171 8.35608 160.514 9.21674C162.111 9.80429 162.954 11.4459 162.576 12.9165C162.294 14.0066 160.966 15.423 159.919 15.6004C157.277 16.0466 156.718 13.7495 155.964 11.9314Z" fill="#FF15F6"/>
<path d="M103.238 98.7996C103.284 100.799 102.161 101.986 100.183 102.03C98.2027 102.074 97.0074 100.946 96.948 98.9771C96.8884 97.0114 98.0423 95.7873 99.9995 95.7416C101.973 95.696 103.194 96.8488 103.238 98.7996Z" fill="#FF15F6"/>
<path d="M73.2896 98.7964C73.3317 100.798 72.2075 101.987 70.2338 102.03C68.2531 102.072 67.0473 100.939 66.9933 98.9813C66.9389 97.0103 68.0881 95.7926 70.0486 95.7449C72.0202 95.696 73.2491 96.8531 73.2896 98.7964Z" fill="#FF15F6"/>
<path d="M43.3395 98.7964C43.3794 100.799 42.2563 101.987 40.2832 102.029C38.2859 102.071 37.094 100.95 37.0447 98.9845C36.9954 97.0082 38.1385 95.7969 40.0979 95.7469C42.0773 95.697 43.3011 96.8488 43.3395 98.7964Z" fill="#FF15F6"/>
<path d="M282.067 69.7619C282.17 71.7605 281.083 72.9888 279.123 73.0865C277.138 73.1853 275.874 72.0845 275.768 70.1678C275.66 68.2074 276.781 66.9419 278.717 66.8378C280.698 66.7315 281.967 67.8397 282.067 69.7619Z" fill="#FF15F6"/>
<path d="M252.12 70.0613C252.073 72.0058 250.865 73.1321 248.873 73.0874C246.878 73.0428 245.772 71.8772 245.817 69.868C245.86 67.9193 247.068 66.7909 249.064 66.8366C251.048 66.8822 252.168 68.0638 252.12 70.0613Z" fill="#FF15F6"/>
<path d="M218.945 66.8376C220.941 66.8067 222.137 67.9394 222.17 69.8903C222.203 71.8942 221.089 73.0523 219.092 73.0874C217.09 73.1225 215.908 72.0025 215.871 70.0379C215.835 68.0362 216.957 66.8684 218.945 66.8376Z" fill="#FF15F6"/>
<path d="M252.12 41.1203C252.081 43.0626 250.869 44.2027 248.882 44.1634C246.892 44.124 245.771 42.9489 245.819 40.9513C245.866 38.9909 247.058 37.8688 249.053 37.9092C251.053 37.9486 252.16 39.1089 252.12 41.1203Z" fill="#FF15F6"/>
<path d="M100.174 66.8397C102.166 66.8748 103.276 68.0362 103.238 70.0443C103.201 72.0047 102.012 73.1257 100.012 73.0874C98.0167 73.0503 96.9095 71.8932 96.9446 69.8817C96.9786 67.9182 98.1601 66.8047 100.174 66.8397Z" fill="#FF15F6"/>
<path d="M73.2932 69.8734C73.3388 71.8826 72.2296 73.0471 70.2343 73.0875C68.2332 73.1268 67.0373 72.0091 66.9938 70.0582C66.9486 68.0596 68.0657 66.8823 70.0507 66.8377C72.0419 66.7931 73.249 67.9236 73.2932 69.8734Z" fill="#FF15F6"/>
<path d="M306.249 43.8626C305.61 39.1609 306.2 37.9156 308.862 37.9177C310.411 37.9188 311.831 39.4595 311.974 41.2977C312.137 43.3855 310.581 44.1283 306.249 43.8626Z" fill="#FF15F6"/>
<path d="M282.066 40.7781C282.199 42.7502 281.1 44.0369 279.176 44.1644C277.2 44.294 275.891 43.1932 275.766 41.2977C275.639 39.3458 276.753 38.0442 278.664 37.9103C280.639 37.7722 281.938 38.8666 282.066 40.7781Z" fill="#FF15F6"/>
<path d="M222.174 41.2944C222.058 43.1858 220.746 44.2897 218.768 44.1644C216.845 44.0412 215.748 42.7607 215.874 40.7813C215.995 38.8666 217.286 37.7754 219.27 37.9114C221.176 38.0421 222.296 39.3458 222.174 41.2944Z" fill="#FF15F6"/>
<path d="M191.837 43.7117C187.55 44.1846 185.918 43.5215 185.938 41.49C185.957 39.5327 187.677 37.7509 189.391 37.9135C191.803 38.1419 192.228 39.0833 191.837 43.7117Z" fill="#FF15F6"/>
<path d="M156.001 40.8025C159.441 36.9487 159.684 36.9477 163.037 40.7261C162.54 42.271 162.399 43.988 160.074 44.2069C157.677 44.4311 156.69 43.1645 156.001 40.8025Z" fill="#FF15F6"/>
<path d="M306.296 95.9161C307.472 95.8491 308.334 95.6493 309.138 95.7854C310.765 96.0584 312.258 97.9901 311.759 99.3544C311.332 100.518 310.96 101.967 309.165 102.044C307.246 102.125 305.902 101.212 305.767 99.2056C305.695 98.1261 306.104 97.0137 306.296 95.9161Z" fill="#FF15F6"/>
<path d="M133.093 128.052C132.171 129.65 131.17 131.269 128.897 130.826C127.48 130.549 125.996 128.155 126.582 126.878C126.997 125.973 128.018 125.006 128.955 124.75C130.973 124.198 131.434 124.708 133.093 128.052Z" fill="#FF15F6"/>
<path d="M191.865 125.176C192.185 129.361 191.443 131.025 189.455 130.941C187.863 130.874 185.878 128.769 185.942 127.218C186.023 125.234 187.703 124.607 191.865 125.176Z" fill="#FF15F6"/>
<path d="M127.276 43.7096C126.869 39.0928 127.518 37.8603 130.134 37.9177C131.648 37.9506 133.203 39.7814 133.04 41.3391C132.821 43.4407 131.214 44.1526 127.276 43.7096Z" fill="#FF15F6"/>
<path d="M127.153 95.984C128.479 95.8745 129.314 95.6758 130.115 95.7682C131.693 95.951 133.38 97.8423 132.977 99.1652C132.614 100.361 132.248 101.8 130.544 102.03C128.702 102.279 127.264 101.36 126.958 99.4021C126.809 98.4512 127.054 97.4396 127.153 95.984Z" fill="#FF15F6"/>
<path d="M192.21 69.8724C192.254 71.9145 191.122 73.078 189.086 73.0876C187.31 73.095 185.93 71.9326 185.938 70.4323C185.945 68.7832 187.485 66.9206 188.897 66.8494C190.951 66.7464 192.168 67.8567 192.21 69.8724Z" fill="#FF15F6"/>
<path d="M99.5106 130.935C98.0529 130.88 96.9319 129.477 96.9489 127.73C96.9691 125.756 98.1613 124.614 100.159 124.656C101.858 124.693 103.254 125.931 103.222 127.374C103.186 128.986 101.093 130.994 99.5106 130.935Z" fill="#FF15F6"/>
<path d="M218.805 124.655C220.771 124.538 222.073 125.671 222.172 127.585C222.262 129.326 221.214 130.766 219.748 130.916C218.186 131.075 216.05 129.188 215.903 127.517C215.774 126.043 217.076 124.758 218.805 124.655Z" fill="#FF15F6"/>
<path d="M186.067 99.025C185.984 97.3961 187.588 95.7077 189.183 95.746C190.944 95.7896 192.044 96.7893 192.211 98.4979C192.401 100.442 191.317 101.828 189.445 102.036C187.876 102.21 186.153 100.674 186.067 99.025Z" fill="#FF15F6"/>
<path d="M133.041 69.8266C133.12 71.464 131.532 73.1184 129.934 73.0865C128.125 73.0504 127.113 72.1355 126.908 70.3515C126.684 68.3986 127.759 67.0428 129.662 66.8346C131.249 66.6614 132.962 68.1786 133.041 69.8266Z" fill="#FF15F6"/>
<path d="M308.731 73.0832C306.751 73.0238 305.661 71.8422 305.723 69.8255C305.785 67.8482 306.984 66.7623 309.01 66.8473C310.314 66.9014 311.803 68.4687 311.861 69.8457C311.93 71.4937 310.346 73.1321 308.731 73.0832Z" fill="#FF15F6"/>
<path d="M1.57474 962.511C0.998193 961.704 0.324206 961.122 0.142377 960.415C-0.096298 959.486 0.0372383 958.458 0.0372383 957.472C0.0375996 895.878 -0.0344151 834.283 0.110286 772.69C0.138012 760.985 3.13668 749.795 8.01226 739.119C13.0415 728.106 20.1125 718.607 29.0329 710.477C33.3865 706.509 38.1774 703.074 43.2449 700.091C52.4919 694.65 62.5161 691.081 73.0315 689.232C79.7832 688.044 86.7155 687.704 93.5918 688.261C105.244 689.205 116.423 692.079 126.815 697.513C133.523 701.02 139.753 705.235 145.456 710.321C149.96 714.34 154.003 718.696 157.574 723.501C164.232 732.458 168.977 742.335 171.894 753.15C173.885 760.527 174.422 767.966 174.413 775.559C174.344 836.026 174.374 896.492 174.374 956.958V961.791C172.686 962.504 172.024 961.613 171.86 960.692C171.615 959.323 171.724 957.885 171.724 956.478C171.72 895.73 171.84 834.981 171.634 774.233C171.583 759.182 167.39 745.098 159.544 732.061C154.388 723.494 147.77 716.259 140.274 709.93C131.45 702.478 121.126 697.452 109.973 694.325C106.907 693.465 103.713 693.046 100.565 692.502C97.2788 691.933 93.9848 691.391 90.6776 690.968C89.1497 690.773 87.5635 690.715 86.0364 690.887C72.9652 692.36 59.9957 694.27 48.3219 700.967C42.7345 704.173 37.4172 707.673 32.436 711.879C26.6673 716.749 21.9634 722.365 17.6975 728.443C11.6002 737.13 7.48293 746.714 5.25164 757.093C4.04399 762.709 3.4337 768.374 3.43833 774.144C3.4873 835.033 3.47541 895.922 3.43261 956.811C3.43158 958.647 4.29963 960.842 1.57474 962.511Z" fill="#B3FE54"/>
<path d="M16.2161 963C14.787 962.019 13.88 961.731 13.7008 961.199C13.4007 960.304 13.5364 959.254 13.5364 958.27C13.5349 895.535 13.5106 832.8 13.5895 770.064C13.5968 764.344 15.1056 758.837 16.7389 753.309C18.7174 746.613 21.7547 740.515 25.4993 734.781C30.8315 726.616 37.6495 719.843 45.7948 714.358C52.8164 709.629 60.3475 706.193 68.4744 703.912C77.3881 701.411 86.5201 701.16 95.5865 701.912C102.93 702.521 110.06 704.549 116.918 707.59C122.857 710.224 128.515 713.347 133.432 717.424C140.905 723.623 147.509 730.751 152.187 739.423C155.123 744.863 157.657 750.497 159.117 756.507C160.364 761.636 161.669 766.789 161.67 772.141C161.671 834.03 161.683 895.919 161.668 957.809C161.668 959.401 162.268 961.301 160.072 962.226C158.775 961.992 158.277 961.098 158.259 959.841C158.241 958.573 158.247 957.303 158.247 956.034C158.233 894.004 158.225 831.974 158.199 769.944C158.196 764.149 156.504 758.676 154.78 753.222C152.695 746.623 149.538 740.547 145.569 734.906C139.084 725.69 130.834 718.476 120.907 713.088C114.075 709.38 106.808 706.915 99.2632 705.463C94.6279 704.571 89.7551 704.176 85.0557 704.505C74.2726 705.258 63.8339 707.74 54.1865 712.852C49.3499 715.415 45.0412 718.695 40.8093 722.214C32.7405 728.923 27.1341 737.337 22.6182 746.568C20.1656 751.581 18.9813 757.039 17.7108 762.506C15.7021 771.15 16.2574 779.816 16.2485 788.485C16.1859 844.594 16.2161 900.703 16.2161 956.812L16.2161 963Z" fill="#B3FE54"/>
<path d="M147.268 962.47C146.649 961.725 145.794 961.133 145.622 960.385C145.344 959.177 145.502 957.865 145.502 956.596C145.5 896.682 145.543 836.766 145.461 776.851C145.446 765.61 142.579 755.129 136.58 745.415C128.149 731.762 116.006 723.492 100.705 719.681C96.2818 718.579 91.6052 718.011 87.051 718.048C81.9342 718.09 76.8328 718.899 71.7993 720.275C64.819 722.183 58.5186 725.285 52.8303 729.642C47.1132 734.021 42.2633 739.213 38.3197 745.304C33.6741 752.48 31.5348 760.502 29.8595 768.701C29.4989 770.465 29.7208 772.355 29.7201 774.186C29.7135 834.948 29.712 895.708 29.7098 956.469C29.7098 957.597 29.8477 958.75 29.6559 959.845C29.504 960.712 28.9451 961.508 28.5985 962.268C26.8531 962.045 26.3273 961.173 26.2905 959.906C26.2668 959.06 26.2779 958.214 26.2779 957.368C26.2787 896.607 26.3001 835.846 26.2514 775.085C26.2455 768.266 27.9835 761.811 29.9745 755.445C32.6078 747.022 37.5351 739.792 43.4793 733.404C47.0816 729.534 51.5259 726.499 56.0447 723.635C62.7765 719.367 70.2721 717.204 77.8917 715.473C80.9947 714.768 84.3167 714.747 87.5251 714.847C94.2223 715.054 100.888 715.81 107.226 718.138C116.007 721.364 123.878 726.006 130.567 732.726C137.764 739.957 142.875 748.341 145.762 758.05C147.146 762.707 148.257 767.401 148.248 772.413C148.144 834.302 148.187 896.19 148.165 958.08C148.165 959.426 148.637 960.899 147.268 962.47Z" fill="#B3FE54"/>
<path d="M40.4539 962.627C40.1279 961.686 39.8536 961.205 39.8116 960.706C39.7283 959.725 39.7673 958.734 39.7673 957.747C39.7667 896.709 39.7954 835.67 39.7416 774.63C39.732 763.961 43.5377 754.811 49.7046 746.322C55.4475 738.416 63.3495 733.588 72.1585 730.154C75.5964 728.814 79.4648 728.299 83.1828 728.028C88.3468 727.652 93.6221 727.529 98.6623 728.93C104.058 730.432 109.259 732.566 113.951 735.719C115.92 737.042 117.931 738.374 119.633 740.005C121.848 742.127 123.928 744.434 125.792 746.87C130.101 752.505 132.974 758.873 134.399 765.81C135.041 768.938 135.413 772.181 135.416 775.372C135.474 836.13 135.464 896.887 135.438 957.643C135.437 959.322 136.15 961.42 133.668 962.224C132.41 961.236 132.007 959.967 132.025 958.502C132.039 957.375 132.026 956.247 132.026 955.119C132.025 895.49 131.985 835.861 132.076 776.232C132.087 768.633 130.474 761.528 127.125 754.818C124.129 748.814 119.567 744.021 114.323 739.93C108.122 735.094 100.963 732.645 93.218 731.337C80.9182 729.259 70.3372 733.197 60.5297 739.987C52.3984 745.618 47.5765 753.754 44.4735 762.942C43.6829 765.282 43.3725 767.862 43.2921 770.345C43.1705 774.088 43.1262 777.841 43.1594 781.593C43.183 784.282 42.0371 787.177 42.717 789.616C43.5392 792.567 42.2259 795.289 42.9699 798.204C43.54 800.433 42.7531 803.009 42.8896 805.485C43.0591 808.556 42.728 811.662 43.0252 814.75C43.0658 815.166 43.2855 815.625 43.1727 815.987C41.7842 820.462 44.5952 825.134 42.5193 829.567C44.2287 832.287 42.1448 835.183 42.9751 838.11C43.5576 840.163 42.8873 842.652 42.978 844.989C43.107 848.328 42.8423 851.68 43.0503 855.057C43.1904 857.323 42.8778 859.637 42.9743 861.97C43.1122 865.315 43.3784 868.793 42.9677 872.013C42.3675 876.724 44.5347 881.448 42.5422 886.033C44.0273 888.777 41.8778 891.758 43.0938 894.541C43.3017 895.016 43.3585 895.783 43.113 896.19C42.1086 897.857 43.1255 899.456 43.0392 901.026C42.9485 902.663 42.8084 904.166 43.0245 905.87C43.3762 908.647 43.1152 911.586 42.5924 914.359C42.2472 916.186 43.3511 917.665 42.8261 919.658C42.1367 922.274 42.8903 925.271 43.0289 928.104C43.0363 928.239 43.1616 928.388 43.1307 928.503C41.8948 933.132 44.3437 937.868 42.6772 942.538C42.3129 943.558 43.1963 944.959 43.155 946.172C43.0591 949.008 42.4449 951.858 42.6292 954.663C42.7664 956.74 43.2309 958.77 42.3283 960.726C42.029 961.373 41.2798 961.813 40.4539 962.627Z" fill="#B3FE54"/>
<path d="M66.9959 962.195C66.6257 961.459 66.1655 960.891 66.066 960.266C65.9111 959.303 65.993 958.3 65.993 957.314C65.9915 896.995 66.0048 836.676 65.976 776.357C65.9723 767.993 69.8496 761.919 76.6913 757.548C83.0705 753.472 94.4973 754.293 100.094 758.868C106.182 763.845 109.214 770.006 109.217 777.728C109.237 837.483 109.235 897.238 109.194 956.993C109.193 958.799 110.079 961.035 107.294 962.403C106.802 961.667 106.046 960.988 105.885 960.191C105.639 958.969 105.794 957.666 105.794 956.398C105.793 896.502 105.777 836.606 105.819 776.71C105.822 771.355 103.89 767.004 100.257 763.154C91.6745 754.057 75.9819 757.624 71.0656 767.733C69.6852 770.572 69.4382 773.333 69.4382 776.279C69.4337 819.545 69.4352 862.811 69.4352 906.077C69.4352 922.988 69.436 939.9 69.4337 956.812C69.433 958.762 69.7906 960.853 66.9959 962.195Z" fill="#B3FE54"/>
<path d="M120.368 962.153C120.011 961.462 119.442 960.794 119.339 960.061C119.164 958.816 119.279 957.53 119.279 956.262C119.278 896.628 119.295 836.996 119.263 777.363C119.257 766.274 114.653 757.236 105.833 750.706C100.373 746.661 94.0084 744.733 86.9581 744.878C78.5045 745.052 71.2654 748.014 65.4296 753.802C59.3983 759.783 55.9451 767.189 55.9466 775.938C55.9569 836.134 55.9517 896.331 55.9503 956.527C55.9503 957.655 56.0963 958.811 55.8912 959.901C55.7312 960.753 55.1332 961.523 54.6568 962.474C53.0404 961.622 52.7064 960.415 52.5501 959.185C52.4269 958.213 52.5162 957.214 52.5162 956.228C52.5162 897.159 52.4844 838.09 52.5589 779.021C52.5678 772.287 53.5279 765.626 56.9723 759.617C62.1238 750.628 69.7979 744.825 79.8252 742.479C86.2922 740.967 92.8322 741.539 99.1636 743.695C105.132 745.728 109.889 749.374 114.018 754.154C117.905 758.655 120.261 763.748 121.431 769.451C121.849 771.487 121.941 773.619 121.943 775.708C121.971 821.807 121.965 867.906 121.965 914.005C121.966 928.666 121.979 943.328 121.944 957.989C121.941 959.437 122.549 961.19 120.368 962.153Z" fill="#B3FE54"/>
</svg>
