<svg width="47" height="44" viewBox="0 0 47 44" fill="none" xmlns="http://www.w3.org/2000/svg">
<path d="M44.0489 1.00012L26.3521 14.1293L29.6387 6.38338L44.0489 1.00012Z" fill="#E17726" stroke="#E17726" stroke-width="0.712817" stroke-linecap="round" stroke-linejoin="round"/>
<path d="M3.23828 1.00049L20.7741 14.2539L17.6485 6.38375L3.23828 1.00049Z" fill="#E27625" stroke="#E27625" stroke-width="0.712817" stroke-linecap="round" stroke-linejoin="round"/>
<path d="M37.6867 31.4347L32.979 38.6485L43.0525 41.4189L45.9314 31.594L37.6867 31.4347Z" fill="#E27625" stroke="#E27625" stroke-width="0.712817" stroke-linecap="round" stroke-linejoin="round"/>
<path d="M1.37256 31.5935L4.23395 41.4184L14.3074 38.6481L9.61721 31.4342L1.37256 31.5935Z" fill="#E27625" stroke="#E27625" stroke-width="0.712817" stroke-linecap="round" stroke-linejoin="round"/>
<path d="M13.7557 19.2456L10.9487 23.4928L20.9342 23.9373L20.5964 13.1871L13.7557 19.2456Z" fill="#E27625" stroke="#E27625" stroke-width="0.712817" stroke-linecap="round" stroke-linejoin="round"/>
<path d="M33.5305 19.2456L26.5831 13.0629L26.3521 23.9373L36.3375 23.4928L33.5305 19.2456Z" fill="#E27625" stroke="#E27625" stroke-width="0.712817" stroke-linecap="round" stroke-linejoin="round"/>
<path d="M14.3071 38.6488L20.3316 35.7154L15.142 31.6653L14.3071 38.6488Z" fill="#E27625" stroke="#E27625" stroke-width="0.712817" stroke-linecap="round" stroke-linejoin="round"/>
<path d="M26.9561 35.7154L32.9805 38.6488L32.1456 31.6653L26.9561 35.7154Z" fill="#E27625" stroke="#E27625" stroke-width="0.712817" stroke-linecap="round" stroke-linejoin="round"/>
<path d="M32.9805 38.6482L26.9561 35.7147L27.4356 39.6423L27.3831 41.2946L32.9805 38.6482Z" fill="#D5BFB2" stroke="#D5BFB2" stroke-width="0.712817" stroke-linecap="round" stroke-linejoin="round"/>
<path d="M14.3066 38.648L19.904 41.2944L19.869 39.6422L20.3311 35.7146L14.3066 38.648Z" fill="#D5BFB2" stroke="#D5BFB2" stroke-width="0.712817" stroke-linecap="round" stroke-linejoin="round"/>
<path d="M20.011 29.0707L15 27.597L18.5355 25.9797L20.011 29.0707Z" fill="#233447" stroke="#233447" stroke-width="0.712817" stroke-linecap="round" stroke-linejoin="round"/>
<path d="M27.2759 29.0703L28.7514 25.9794L32.3044 27.5966L27.2759 29.0703Z" fill="#233447" stroke="#233447" stroke-width="0.712817" stroke-linecap="round" stroke-linejoin="round"/>
<path d="M14.3074 38.6488L15.1773 31.4342L9.6167 31.5935L14.3074 38.6488Z" fill="#CC6228" stroke="#CC6228" stroke-width="0.712817" stroke-linecap="round" stroke-linejoin="round"/>
<path d="M32.1099 31.4342L32.9797 38.6488L37.688 31.5935L32.1099 31.4342Z" fill="#CC6228" stroke="#CC6228" stroke-width="0.712817" stroke-linecap="round" stroke-linejoin="round"/>
<path d="M36.3375 23.4929L26.3521 23.9374L27.276 29.0702L28.7513 25.9797L32.3038 27.5967L36.3375 23.4929Z" fill="#CC6228" stroke="#CC6228" stroke-width="0.712817" stroke-linecap="round" stroke-linejoin="round"/>
<path d="M15 27.5965L18.535 25.9795L20.0102 29.07L20.9342 23.9373L10.9487 23.4928L15 27.5965Z" fill="#CC6228" stroke="#CC6228" stroke-width="0.712817" stroke-linecap="round" stroke-linejoin="round"/>
<path d="M10.9487 23.4928L15.1417 31.6653L15 27.5965L10.9487 23.4928Z" fill="#E27525" stroke="#E27525" stroke-width="0.712817" stroke-linecap="round" stroke-linejoin="round"/>
<path d="M32.3038 27.5964L32.1445 31.6651L36.3375 23.4927L32.3038 27.5964Z" fill="#E27525" stroke="#E27525" stroke-width="0.712817" stroke-linecap="round" stroke-linejoin="round"/>
<path d="M20.9343 23.9373L20.0103 29.07L21.1827 35.1285L21.4312 27.152L20.9343 23.9373Z" fill="#E27525" stroke="#E27525" stroke-width="0.712817" stroke-linecap="round" stroke-linejoin="round"/>
<path d="M26.3521 23.937L25.8726 27.1343L26.1036 35.1282L27.2761 29.0697L26.3521 23.937Z" fill="#E27525" stroke="#E27525" stroke-width="0.712817" stroke-linecap="round" stroke-linejoin="round"/>
<path d="M27.276 29.0701L26.1035 35.1285L26.9558 35.7148L32.1445 31.6653L32.3037 27.5966L27.276 29.0701Z" fill="#F5841F" stroke="#F5841F" stroke-width="0.712817" stroke-linecap="round" stroke-linejoin="round"/>
<path d="M15 27.5967L15.1417 31.6654L20.3305 35.7149L21.1827 35.1287L20.0102 29.0702L15 27.5967Z" fill="#F5841F" stroke="#F5841F" stroke-width="0.712817" stroke-linecap="round" stroke-linejoin="round"/>
<path d="M27.3833 41.2937L27.4358 39.6416L26.993 39.2514H20.2937L19.8684 39.6416L19.9034 41.2937L14.3066 38.6476L16.2615 40.2454L20.2412 43H27.0455L31.0252 40.2454L32.98 38.6476L27.3833 41.2937Z" fill="#C0AC9D" stroke="#C0AC9D" stroke-width="0.712817" stroke-linecap="round" stroke-linejoin="round"/>
<path d="M26.9561 35.7149L26.1039 35.1287H21.1829L20.3307 35.7149L19.8687 39.6419L20.2939 39.2516H26.9929L27.4356 39.6419L26.9561 35.7149Z" fill="#161616" stroke="#161616" stroke-width="0.712817" stroke-linecap="round" stroke-linejoin="round"/>
<path d="M44.7947 14.9831L46.2875 7.73421L44.0491 0.999878L26.9561 13.6862L33.5311 19.2463L42.8223 21.9659L44.8664 19.5665L43.9774 18.9278L45.3985 17.6292L44.3151 16.7769L45.7362 15.6936L44.7947 14.9831Z" fill="#763E1A" stroke="#763E1A" stroke-width="0.712817" stroke-linecap="round" stroke-linejoin="round"/>
<path d="M1 7.73457L2.51032 14.9834L1.55128 15.694L2.97235 16.7773L1.88904 17.6296L3.31011 18.9281L2.42107 19.5669L4.46517 21.9663L13.7564 19.2466L20.3314 13.6866L3.23836 1.00024L1 7.73457Z" fill="#763E1A" stroke="#763E1A" stroke-width="0.712817" stroke-linecap="round" stroke-linejoin="round"/>
<path d="M42.8218 21.9654L33.5306 19.2457L36.3377 23.4932L32.1445 31.6661L37.687 31.5943H45.9317L42.8218 21.9654Z" fill="#F5841F" stroke="#F5841F" stroke-width="0.712817" stroke-linecap="round" stroke-linejoin="round"/>
<path d="M13.7566 19.2458L4.46545 21.9655L1.37305 31.5944H9.6177L15.1427 31.6662L10.9495 23.4933L13.7566 19.2458Z" fill="#F5841F" stroke="#F5841F" stroke-width="0.712817" stroke-linecap="round" stroke-linejoin="round"/>
<path d="M26.3519 23.9374L26.9557 13.6859L29.6384 6.38318H17.6475L20.3302 13.6859L20.9339 23.9374L21.1649 27.1696L21.1824 35.1286H26.1034L26.1209 27.1696L26.3519 23.9374Z" fill="#F5841F" stroke="#F5841F" stroke-width="0.712817" stroke-linecap="round" stroke-linejoin="round"/>
</svg>
