<svg width="176" height="60" viewBox="0 0 176 60" fill="none" xmlns="http://www.w3.org/2000/svg">
<g clip-path="url(#clip0_2073_2035)">
<path d="M16.2876 0.572573C15.1173 1.02006 13.1896 3.42958 12.0537 5.80469C10.5047 9.10918 9.8163 12.035 9.8163 15.4084C9.8163 17.8523 9.95399 18.644 10.7457 20.3995C11.262 21.501 12.0881 22.8779 12.6045 23.4286C13.7748 24.6678 15.9434 25.6661 17.4235 25.7005C18.3529 25.7005 18.525 25.8382 18.525 26.561C18.525 27.0429 18.2152 28.1789 17.871 29.1427C16.3564 33.1012 13.2929 35.3386 9.26555 35.3386C6.40854 35.3386 4.34324 34.4092 3.58596 32.7914C2.65657 30.8293 2.8631 29.6246 4.4465 27.6969C5.51358 26.4578 5.92664 25.6316 6.06432 24.4957C6.20201 23.1188 6.13317 22.9123 5.41031 22.6714C3.44827 21.9485 1.00432 23.7729 0.247042 26.4578C0.0405115 27.2839 -0.0627539 28.8329 0.0405115 29.9344C0.556838 35.5795 4.79072 38.471 11.8128 37.9891C15.668 37.7137 17.6645 36.9564 19.7642 34.8223C21.9672 32.6537 22.8966 30.2097 23.3441 25.7349C23.7227 21.9485 23.7915 7.45693 23.4818 3.56727C23.2408 0.951212 23.2408 0.916791 22.1737 0.779103C19.7298 0.400464 16.9416 0.297198 16.2876 0.572573ZM18.4217 5.46047C18.6283 5.73584 18.6971 9.10918 18.5939 13.8938C18.4562 21.3289 18.3873 21.9141 17.8022 22.0862C16.6662 22.4648 15.2894 21.501 14.3944 19.6767C13.6027 18.1277 13.5339 17.5425 13.5339 13.825C13.5339 9.35013 13.9125 7.73231 15.3238 6.08006C16.2188 4.97856 17.8022 4.66877 18.4217 5.46047ZM60.0377 1.50196C59.9344 1.77734 59.8312 2.80999 59.8312 3.7738C59.8312 4.77203 59.7279 6.59639 59.5902 7.86999L59.3837 10.2107H57.8003C56.2513 10.2107 53.7385 10.6926 53.3943 11.0024C53.3254 11.1056 53.3943 11.4843 53.6008 11.8629C53.945 12.4825 54.6679 12.7579 58.3854 13.5152L59.1427 13.6529L59.0739 21.8452C58.9706 29.005 59.0395 30.2786 59.6246 32.1374C60.7261 35.7861 63.2389 37.9891 65.7861 37.5072C67.0597 37.2662 68.7464 35.4419 69.8823 33.1012C70.3987 31.9653 70.8461 31.3457 70.8461 31.7243C70.8461 32.8602 72.464 35.9238 73.3245 36.5089C73.772 36.8187 74.9768 37.1974 75.975 37.4039C78.9353 37.9546 80.6563 36.7155 82.4119 32.7225L82.9626 31.3801L83.2724 32.3783C83.651 33.7552 85.5098 35.5795 86.749 35.8205C88.0915 36.0959 89.8814 35.3042 90.8108 34.0306L91.6025 32.9635L92.3253 34.4092C93.2891 36.268 94.3218 36.9908 96.8002 37.4383C98.6245 37.7481 98.9343 37.7481 99.726 37.1285C100.208 36.7843 101.034 35.7172 101.55 34.7878L102.514 33.1012V37.1974L99.967 39.7102C97.1444 42.4639 95.0791 46.0782 94.0808 49.9678C92.3942 56.6113 94.5283 59.5371 101.103 59.5715C103.925 59.6059 103.96 59.6059 104.924 58.47C106.542 56.5424 106.782 55.0967 106.989 46.3536L107.161 38.2644H108.263C108.882 38.2644 109.571 38.0579 109.812 37.817C110.19 37.4383 110.121 37.2318 109.433 36.681C108.985 36.3368 108.228 36.027 107.746 36.027H106.886L107.058 30.4163C107.196 26.1135 107.368 24.5646 107.815 23.704L108.4 22.5681L107.264 22.1206L106.128 21.6387V18.5408C106.128 15.5805 106.06 15.3739 105.165 14.4101C104.648 13.8594 103.547 13.2398 102.755 12.9988C101.963 12.7923 100.587 12.276 99.6916 11.8629C97.7984 11.0024 96.8002 11.1745 95.1479 12.6202C92.8072 14.6855 91.6369 18.7473 91.1894 26.2168C90.914 31.0014 90.3977 32.6881 89.0897 33.1012C88.1259 33.411 87.4719 32.7914 87.0244 31.2424C86.5769 29.5557 86.5769 25.6661 87.0932 23.7384C87.4719 22.2239 87.4374 22.1206 86.6113 21.4322C85.8196 20.7782 85.7164 20.3995 85.5787 17.8523C85.3721 14.238 84.8558 13.5152 81.6546 12.2071C75.2521 9.59108 72.0509 12.4825 70.8461 22.0518C70.674 23.5319 70.3642 24.9432 70.1921 25.1497C70.02 25.3563 69.607 26.5955 69.3316 27.8691C68.6431 30.7605 67.6793 32.757 66.509 33.4798C65.6829 34.0306 65.614 34.0306 64.96 33.3765C63.9274 32.3439 63.6176 29.1082 63.8241 21.9141C64.065 12.8956 63.9274 13.4119 66.2336 13.1021C67.3007 12.9988 69.1595 12.8612 70.3642 12.8612C72.7393 12.8267 73.0836 12.5169 71.8788 11.4154C71.328 10.9335 70.3987 10.727 67.817 10.5893L64.4781 10.3828L64.547 7.97326C64.5814 6.63081 64.7191 4.80645 64.8223 3.91149C65.0289 2.29366 64.9944 2.25924 63.8929 1.81176C61.9653 1.05448 60.2442 0.882369 60.0377 1.50196ZM101.378 15.8559C102.273 16.6476 102.342 16.8541 102.308 19.2292C102.239 23.8761 101.344 29.1082 100.208 31.3801C99.4162 32.9635 98.0049 34.3059 97.11 34.3059C96.6625 34.3059 96.0773 33.9273 95.7331 33.3765C94.8037 31.9997 94.8381 22.9123 95.7675 20.193C96.6625 17.5081 97.6263 16.0624 98.8655 15.5116C100.277 14.892 100.277 14.892 101.378 15.8559ZM81.4481 16.5787C82.3774 17.7835 82.7217 20.2963 82.0676 21.2945C81.7923 21.742 81.4136 23.7384 81.2071 25.7693C80.6908 30.3818 80.0023 32.7914 78.7632 34.0306C77.3174 35.4418 76.1127 35.3386 75.4242 33.6863C74.0818 30.554 74.6325 21.501 76.388 18.0933C77.6272 15.6493 80.14 14.892 81.4481 16.5787ZM102.17 51.2759C101.55 55.2688 100.07 57.3341 98.177 56.8866C96.3871 56.4391 95.8364 53.2035 96.8346 49.2794C97.5919 46.4224 99.4162 42.6704 101 40.8461L102.342 39.3315L102.445 44.1161C102.48 46.7666 102.377 50.0023 102.17 51.2759Z" fill="black"/>
<path d="M128.159 12.7577C126.403 14.5821 125.37 17.3358 124.854 21.7418C124.372 25.8724 122.995 31.3111 122.032 33.0666C121.446 34.1337 121.068 34.4779 120.414 34.4779C119.037 34.4779 118.589 32.5847 118.796 27.4214C118.934 24.289 119.175 22.4302 119.76 20.5715L120.551 18.0243L119.794 17.4047C119.312 17.026 118.142 16.7162 116.696 16.5785C115.423 16.4753 114.149 16.3376 113.874 16.3032C113.529 16.2343 113.357 15.7868 113.357 14.8575C113.323 12.8954 112.979 12.5168 111.567 12.7233C109.468 13.0675 109.468 13.1364 109.64 18.9192C109.777 22.2926 109.674 25.0807 109.399 26.733C108.779 30.3817 108.814 30.6571 109.502 30.7947C110.431 31.0013 111.326 28.5229 112.049 23.635L112.703 19.3323H114.734L114.596 23.8071C114.39 32.5847 116.214 37.0595 120.001 37.0595C121.584 37.0595 122.961 35.9924 123.959 33.9615L124.82 32.2749L125.37 33.755C125.68 34.5467 126.369 35.6138 126.885 36.0957C128.021 37.1628 131.222 37.9545 132.53 37.4381C133.666 37.0251 135.146 35.2007 136.076 33.1698L136.798 31.4832L137.452 32.9289C139.105 36.612 142.891 36.8874 145.129 33.5141L146.058 32.1028L146.264 33.8927C146.574 36.1645 146.953 36.612 148.846 36.9218C151.841 37.3693 151.841 37.3349 152.529 32.1716C153.114 27.5247 154.009 23.635 154.526 23.635C154.663 23.635 154.835 25.9413 154.904 28.7639C155.008 33.2043 155.111 33.996 155.662 34.6156C157.004 36.0957 160.343 35.8547 160.343 34.2713C160.343 33.0666 161.72 28.0754 162.856 25.184L163.957 22.4302L164.129 27.2493C164.267 31.5176 164.405 32.2749 165.162 33.755C165.644 34.7188 166.436 35.7859 166.952 36.1645C168.226 37.0939 170.67 37.0939 171.909 36.1645C174.559 34.2025 177.313 25.7003 175.316 25.7003C174.697 25.7003 174.284 26.5264 173.94 28.282C173.148 32.6879 170.497 35.2007 169.293 32.6535C168.57 31.1734 168.467 25.2528 169.121 22.4302C170.153 17.9554 170.188 18.2996 168.811 17.267C167.95 16.613 166.986 16.2343 165.885 16.1311L164.267 15.9934L163.372 17.9898C162.856 19.1258 161.72 22.1205 160.79 24.6677L159.138 29.3146L159.035 24.0825L158.932 18.816L157.933 18.2996C155.18 16.8883 153.734 18.1619 152.116 23.4973C151.497 25.5626 150.946 27.387 150.877 27.5935C150.808 27.7656 150.739 24.9775 150.739 21.3287C150.705 17.2326 150.567 14.6509 150.361 14.5132C150.154 14.3755 149.156 14.2034 148.158 14.1002L146.299 13.8936L146.161 20.3994C146.024 25.8724 145.886 27.2493 145.266 29.1769C143.924 33.2043 142.203 34.4435 141.204 32.0683C140.619 30.6571 140.55 25.4594 141.101 23.4629C141.445 22.2237 141.411 22.0516 140.619 21.3976C139.896 20.8124 139.759 20.2961 139.552 17.9898C139.277 14.9263 138.761 13.6183 137.556 13.1019C133.941 11.4153 133.322 11.2432 131.532 11.2432C129.673 11.2432 129.501 11.312 128.159 12.7577ZM134.871 16.0622C136.007 16.6818 136.764 20.5715 135.904 21.432C135.731 21.6041 135.387 23.3941 135.215 25.3561C134.733 30.0375 133.976 32.6879 132.771 33.996C131.498 35.3384 130.086 35.2696 129.398 33.8239C128.227 31.3455 128.296 24.3579 129.535 20.0551C130.568 16.5785 132.737 14.9263 134.871 16.0622ZM27.6814 13.9281C27.406 14.41 26.6832 30.7259 26.8553 32.6535C27.0962 34.9254 27.8535 35.6826 29.85 35.6826C30.7105 35.6826 31.6055 35.5449 31.812 35.4073C32.053 35.2696 32.466 33.8583 32.7758 32.2405C33.4298 29.0392 34.4625 25.6659 35.2198 24.3234C35.6672 23.5317 35.7017 23.8415 35.7361 27.5935C35.7361 32.1716 36.218 33.755 37.8014 34.5811C38.9373 35.1663 41.1059 34.8909 42.3451 33.9615C43.3777 33.2043 43.3777 33.2043 43.8596 33.8927C44.9611 35.4761 49.7113 36.4055 53.0503 35.6826C55.563 35.1663 57.0776 33.9615 57.0776 32.447C57.0776 30.9669 56.5613 30.3128 52.9814 27.4214C49.4015 24.53 48.8164 23.7727 48.8164 22.086C48.8164 19.6077 51.8799 18.1275 53.6698 19.7109C54.496 20.4682 55.2188 20.2961 56.2171 19.1258C56.9399 18.2652 57.0776 17.7489 57.0088 16.613C56.9055 15.4426 56.7334 15.1328 55.8728 14.7198C53.9452 13.7904 47.646 15.477 45.4086 17.5424C43.6187 19.1946 43.2056 21.7418 44.3415 23.9448C44.8579 25.0119 44.9267 25.3217 44.5481 25.4594C44.3071 25.5626 43.9973 26.3199 43.8596 27.1116C43.3089 30.5882 41.4845 32.9633 40.2453 31.7586C39.7979 31.2766 39.6946 30.244 39.6258 25.5626C39.5913 21.2599 39.4536 19.6765 39.0406 18.8848C38.4554 17.7489 37.113 17.2326 36.0803 17.7833C35.2198 18.2308 33.8429 20.6059 32.6037 23.7383L31.6399 26.2166L31.6055 20.6403C31.6055 15.2361 31.5711 15.0296 30.8482 14.5477C29.7811 13.8936 27.9223 13.5494 27.6814 13.9281ZM50.7096 30.2784C51.5357 31.0013 52.2586 31.8618 52.3618 32.2405C52.8781 34.1681 50.0556 34.7188 47.8526 33.101C47.1297 32.5847 46.1659 31.8962 45.6151 31.5864C45.03 31.2422 44.7546 30.8636 44.8923 30.5194C44.9956 30.244 45.2709 29.1425 45.4775 28.0754L45.8561 26.1134L47.5772 27.5591C48.5066 28.3164 49.9179 29.5556 50.7096 30.2784Z" fill="black"/>
</g>
<defs>
<clipPath id="clip0_2073_2035">
<rect width="176" height="60" fill="white"/>
</clipPath>
</defs>
</svg>
