<svg width="142" height="32" viewBox="0 0 142 32" fill="none" xmlns="http://www.w3.org/2000/svg">
<path d="M1.89275 25.999V5.9244H8.91887L12.3889 23.418H12.9051L16.3752 5.9244H23.4013V25.999H19.7305V8.70617H19.2143L15.7729 25.999H9.52111L6.07974 8.70617H5.56354V25.999H1.89275ZM27.1821 25.999V5.9244H35.4413C36.7032 5.9244 37.8121 6.1825 38.768 6.69871C39.743 7.19579 40.4982 7.90318 41.0336 8.82088C41.588 9.73858 41.8652 10.8283 41.8652 12.0902V12.4917C41.8652 13.7344 41.5784 14.8241 41.0049 15.761C40.4504 16.6787 39.6857 17.3956 38.7106 17.9118C37.7547 18.4089 36.6649 18.6574 35.4413 18.6574H30.9676V25.999H27.1821ZM30.9676 15.2161H35.0685C35.9671 15.2161 36.6936 14.9675 37.2481 14.4705C37.8025 13.9734 38.0797 13.2947 38.0797 12.4343V12.1475C38.0797 11.2872 37.8025 10.6085 37.2481 10.1114C36.6936 9.61431 35.9671 9.36576 35.0685 9.36576H30.9676V15.2161ZM49.8238 12.2909V5.9244H52.1181L53.3225 11.2012H53.6093L54.8138 5.9244H57.108V12.2909H55.9036V7.01416H55.6168L54.4123 12.2909H52.5196L51.3151 7.01416H51.0283V12.2909H49.8238ZM45.6368 12.2909V7.01416H43.5147V5.9244H48.9635V7.01416H46.8413V12.2909H45.6368Z" fill="white"/>
<path d="M75.0173 0.0333835H135.191C142.123 0.0333835 142.665 7.48151 139.764 10.3832L119.546 30.6013C114.154 34.0673 109.918 29.8792 109.918 27.2316V14.2342C108.955 7.49486 102.055 8.69832 99.568 10.3832L79.3498 30.6013C73.3806 34.2598 69.2407 29.8792 69 27.2316V6.29138C69 0.707322 73.0115 -0.207309 75.0173 0.0333835Z" fill="white"/>
</svg>
